<?xml version="1.0" encoding="UTF-8" standalone="no"?>
<!-- Created with Inkscape (http://www.inkscape.org/) -->

<svg
   xmlns:dc="http://purl.org/dc/elements/1.1/"
   xmlns:cc="http://creativecommons.org/ns#"
   xmlns:rdf="http://www.w3.org/1999/02/22-rdf-syntax-ns#"
   xmlns:svg="http://www.w3.org/2000/svg"
   xmlns="http://www.w3.org/2000/svg"
   xmlns:sodipodi="http://sodipodi.sourceforge.net/DTD/sodipodi-0.dtd"
   xmlns:inkscape="http://www.inkscape.org/namespaces/inkscape"
   width="25mm"
   height="70mm"
   viewBox="0 0 88.582677 248.03149"
   id="svg2"
   version="1.1"
   inkscape:version="0.91 r13725"
   sodipodi:docname="coil_sensor_simple.svg"
   inkscape:export-filename="/home/chirsch/workspace/SoilMeasuringBoard/coil_sensor_simple.png"
   inkscape:export-xdpi="300"
   inkscape:export-ydpi="300">
  <defs
     id="defs4">
    <inkscape:perspective
       sodipodi:type="inkscape:persp3d"
       inkscape:vp_x="0 : 526.18108 : 1"
       inkscape:vp_y="0 : 999.99996 : 0"
       inkscape:vp_z="744.09446 : 526.18108 : 1"
       inkscape:persp3d-origin="372.04723 : 350.78739 : 1"
       id="perspective4136" />
  </defs>
  <sodipodi:namedview
     id="base"
     pagecolor="#000000"
     bordercolor="#666666"
     borderopacity="1.0"
     inkscape:pageopacity="1"
     inkscape:pageshadow="2"
     inkscape:zoom="3.959798"
     inkscape:cx="57.762861"
     inkscape:cy="139.14281"
     inkscape:document-units="px"
     inkscape:current-layer="layer1"
     showgrid="false"
     inkscape:snap-bbox="true"
     inkscape:bbox-paths="true"
     inkscape:bbox-nodes="true"
     inkscape:snap-bbox-edge-midpoints="true"
     inkscape:snap-bbox-midpoints="true"
     inkscape:window-width="2560"
     inkscape:window-height="1375"
     inkscape:window-x="0"
     inkscape:window-y="0"
     inkscape:window-maximized="1" />
  <metadata
     id="metadata7">
    <rdf:RDF>
      <cc:Work
         rdf:about="">
        <dc:format>image/svg+xml</dc:format>
        <dc:type
           rdf:resource="http://purl.org/dc/dcmitype/StillImage" />
        <dc:title></dc:title>
      </cc:Work>
    </rdf:RDF>
  </metadata>
  <g
     inkscape:label="Layer 1"
     inkscape:groupmode="layer"
     id="layer1"
     transform="translate(0,-804.33071)">
    <path
       style="opacity:1;fill:#ffffff;fill-opacity:1;stroke:none;stroke-width:5;stroke-linecap:round;stroke-miterlimit:4;stroke-dasharray:none;stroke-opacity:1"
       d="m 15.944659,809.64628 a 7.0866141,7.0866141 0 0 0 -7.0859404,7.08594 l 0,194.88088 a 35.433071,35.433071 0 0 0 35.4336004,35.4336 35.433071,35.433071 0 0 0 35.43164,-35.4336 l 0,-194.88088 a 7.0866141,7.0866141 0 0 0 -7.08594,-7.08594 7.0866141,7.0866141 0 0 0 -7.08789,7.08594 7.0866141,7.0866141 0 0 0 0.002,0.0566 l 0,194.82418 a 21.259842,21.259842 0 0 1 -21.25976,21.2598 21.259842,21.259842 0 0 1 -21.25977,-21.2598 l 0,-194.88082 a 7.0866141,7.0866141 0 0 0 -7.08789,-7.08594 z m 28.34766,0 a 14.173228,14.173228 0 0 0 -14.16602,14.03125 l -0.008,0 0,187.93557 a 14.173228,14.173228 0 0 0 14.17383,14.1738 14.173228,14.173228 0 0 0 14.17187,-14.1738 l 0,-187.93557 -0.006,0 a 14.173228,14.173228 0 0 0 -14.16568,-14.03125 z"
       id="rect4152"
       inkscape:connector-curvature="0" />
  </g>
</svg>
